<svg width="707" height="856" viewBox="0 0 707 856" fill="none" xmlns="http://www.w3.org/2000/svg">
<g clip-path="url(#clip0_10_152)">
<path d="M519.554 529.05C537.602 441.513 509.426 342.639 436.815 270.028C326.913 160.126 156.869 151.967 57.0154 251.82C-42.8506 351.686 -34.6911 521.73 75.2107 631.632C185.112 741.534 355.157 749.693 455.023 649.827L681.636 423.214L653.514 395.092L519.554 529.05ZM232.193 281.75C239.024 251.107 270.033 234.221 301.473 244.028C332.912 253.834 352.867 286.62 346.036 317.263C339.19 347.892 308.182 364.779 276.756 354.985C245.29 345.178 225.362 312.393 232.193 281.75ZM350.806 429.059C341.012 397.607 357.898 366.599 388.541 359.767C419.197 352.948 451.97 372.89 461.776 404.33C471.583 435.769 454.695 466.778 424.041 473.622C393.41 480.441 360.611 460.499 350.806 429.059ZM95.196 290.001C116.831 268.366 153.657 270.13 177.469 293.942C201.281 317.754 203.072 354.607 181.437 376.242C159.803 397.877 122.924 396.109 99.1127 372.298C75.3017 348.487 73.5613 311.635 95.196 290.001ZM274.098 432.745C285.1 443.748 285.901 460.737 275.917 470.721C265.92 480.718 248.943 479.905 237.94 468.902C226.938 457.899 226.124 440.923 236.121 430.926C246.105 420.942 263.095 421.743 274.098 432.745ZM49.2096 496.291C39.4039 464.85 56.3021 433.83 86.9446 426.998C117.587 420.166 150.36 440.108 160.18 471.561C169.971 502.987 153.087 534.021 122.445 540.854C91.8142 547.672 59.0152 527.731 49.2096 496.291ZM278.818 618.846C271.973 649.502 240.965 666.386 209.512 656.594C178.085 646.775 158.13 613.99 164.935 583.344C171.767 552.701 202.801 535.817 234.241 545.622C265.681 555.428 285.636 588.215 278.818 618.846ZM333.491 606.676C309.679 582.864 307.927 546 329.561 524.366C351.195 502.732 388.036 504.509 411.847 528.32C435.658 552.131 437.436 588.971 415.802 610.606C394.167 632.241 357.303 630.488 333.491 606.676Z" fill="#606773"/>
</g>
<defs>
<clipPath id="clip0_10_152">
<rect width="576.181" height="634.164" fill="white" transform="translate(-149 407.421) rotate(-45)"/>
</clipPath>
</defs>
</svg>
