<svg width="80" height="80" viewBox="0 0 80 80" fill="none" xmlns="http://www.w3.org/2000/svg">
<path fill-rule="evenodd" clip-rule="evenodd" d="M40 0C62.092 0 80 18.3597 80 41.0117C80 59.1277 68.552 74.4957 52.668 79.9237C50.64 80.3277 49.92 79.047 49.92 77.955C49.92 76.603 49.968 72.1871 49.968 66.6991C49.968 62.8751 48.688 60.3794 47.252 59.1074C56.16 58.0914 65.52 54.623 65.52 38.871C65.52 34.3911 63.968 30.7352 61.4 27.8632C61.816 26.8273 63.188 22.6558 61.008 17.0078C61.008 17.0078 57.656 15.9089 50.02 21.2129C46.824 20.3049 43.4 19.848 40 19.832C36.6 19.848 33.18 20.3049 29.988 21.2129C22.344 15.9089 18.984 17.0078 18.984 17.0078C16.812 22.6558 18.184 26.8273 18.596 27.8632C16.04 30.7352 14.476 34.3911 14.476 38.871C14.476 54.583 23.816 58.1046 32.7 59.1406C31.556 60.1646 30.52 61.971 30.16 64.623C27.88 65.671 22.088 67.4847 18.52 61.2167C18.52 61.2167 16.404 57.2762 12.388 56.9882C12.388 56.9882 8.488 56.9364 12.116 59.4804C12.116 59.4804 14.736 60.7404 16.556 65.4804C16.556 65.4804 18.904 72.8002 30.032 70.3202C30.052 73.7482 30.088 76.979 30.088 77.955C30.088 79.039 29.352 80.3076 27.356 79.9276C11.46 74.5077 0 59.1317 0 41.0117C0 18.3597 17.912 0 40 0Z" fill="#D65A31"/>
</svg>
