<svg width="80" height="80" viewBox="0 0 80 80" fill="none" xmlns="http://www.w3.org/2000/svg">
<g clip-path="url(#clip0_9_101)">
<path d="M2.5 35.8333C2.5 20.1198 2.5 12.2631 7.38154 7.38154C12.2631 2.5 20.1198 2.5 35.8333 2.5H44.1667C59.88 2.5 67.7371 2.5 72.6183 7.38154C77.5 12.2631 77.5 20.1198 77.5 35.8333V44.1667C77.5 59.88 77.5 67.7371 72.6183 72.6183C67.7371 77.5 59.88 77.5 44.1667 77.5H35.8333C20.1198 77.5 12.2631 77.5 7.38154 72.6183C2.5 67.7371 2.5 59.88 2.5 44.1667V35.8333Z" stroke="#D65A31" stroke-width="5"/>
<path d="M58.75 27.5C62.2018 27.5 65 24.7018 65 21.25C65 17.7982 62.2018 15 58.75 15C55.2982 15 52.5 17.7982 52.5 21.25C52.5 24.7018 55.2982 27.5 58.75 27.5Z" fill="#D65A31"/>
<path d="M40 52.5C46.9036 52.5 52.5 46.9036 52.5 40C52.5 33.0964 46.9036 27.5 40 27.5C33.0964 27.5 27.5 33.0964 27.5 40C27.5 46.9036 33.0964 52.5 40 52.5Z" stroke="#D65A31" stroke-width="5"/>
</g>
<defs>
<clipPath id="clip0_9_101">
<rect width="80" height="80" fill="white"/>
</clipPath>
</defs>
</svg>
