<svg width="80" height="80" viewBox="0 0 80 80" fill="none" xmlns="http://www.w3.org/2000/svg">
<path d="M72.2017 0.0590022H7.07972C6.24035 0.0196851 5.40142 0.146272 4.61103 0.431589C3.82064 0.716906 3.0943 1.15529 2.47352 1.72164C1.85279 2.28803 1.34981 2.97129 0.993473 3.73227C0.637132 4.49329 0.434351 5.3171 0.39679 6.15656V71.425C0.44596 73.1816 1.16586 74.8533 2.40864 76.0957C3.65142 77.3387 5.32284 78.0587 7.07972 78.1079H72.2017C73.9095 78.0318 75.5197 77.2894 76.687 76.0401C77.8543 74.7908 78.4856 73.1343 78.4456 71.425V6.15656C78.4597 5.33949 78.3065 4.52822 77.9958 3.77242C77.6851 3.01666 77.2231 2.33232 76.6383 1.76134C76.0539 1.19042 75.3587 0.744955 74.5958 0.452223C73.8329 0.159491 73.0182 0.0256851 72.2017 0.0590022ZM24.787 65.1323H13.4212V30.3518H24.787V65.1323ZM19.3724 25.0834C18.5793 25.111 17.789 24.9744 17.0512 24.682C16.3134 24.3896 15.6441 23.9478 15.0852 23.3843C14.5264 22.8209 14.09 22.1479 13.8037 21.4078C13.5173 20.6676 13.3871 19.8763 13.4212 19.0834C13.3861 18.2819 13.5189 17.482 13.8112 16.735C14.1034 15.9878 14.5486 15.3101 15.1181 14.7451C15.6877 14.1802 16.369 13.7405 17.1184 13.4544C17.8679 13.1682 18.6688 13.0418 19.47 13.0834C20.2631 13.0558 21.0534 13.1924 21.7911 13.4848C22.5289 13.7772 23.1983 14.219 23.7571 14.7825C24.316 15.3459 24.7524 16.0189 25.0387 16.759C25.3251 17.4991 25.4553 18.2905 25.4212 19.0834C25.4563 19.8849 25.3234 20.6848 25.0312 21.4318C24.7389 22.179 24.2938 22.8567 23.7243 23.4216C23.1547 23.9866 22.4734 24.4263 21.724 24.7124C20.9745 24.9986 20.1735 25.125 19.3724 25.0834ZM65.47 65.1323H54.0553V46.1079C54.0553 41.5713 52.4456 38.4494 48.3968 38.4494C47.1392 38.4601 45.9153 38.8596 44.8939 39.5933C43.8719 40.327 43.1022 41.3587 42.6895 42.547C42.3724 43.4377 42.2397 44.3835 42.2992 45.3274V65.1323H31.0797V30.3518H42.2992V35.2299C43.2968 33.3972 44.7812 31.8762 46.589 30.8343C48.3968 29.7928 50.4573 29.2712 52.5431 29.3273C59.909 29.3273 65.47 34.2055 65.47 44.5957V65.1323Z" fill="#D65A31"/>
</svg>
