<svg width="38" height="45" viewBox="0 0 38 45" fill="none" xmlns="http://www.w3.org/2000/svg">
<g clip-path="url(#clip0_8_26)">
<path d="M32.1304 18.3581C31.7145 18.838 31.3839 19.4095 31.1577 20.0397C30.9315 20.6699 30.8142 21.3462 30.8126 22.0297C30.8126 23.4222 31.2853 24.7577 32.1268 25.7423C32.9682 26.7269 34.1095 27.2801 35.2995 27.2801V36.0553H2.3533V27.2801C2.93741 27.2782 3.51541 27.1409 4.05395 26.8762C4.5925 26.6116 5.08092 26.2247 5.49104 25.738C6.31502 24.7592 6.77689 23.4404 6.77689 22.0664C6.77689 20.6925 6.31502 19.3736 5.49104 18.3948C5.08092 17.9081 4.5925 17.5213 4.05395 17.2566C3.51541 16.9919 2.93741 16.8547 2.3533 16.8527V8.00412H35.2995V16.7793C34.7079 16.7811 34.1226 16.9218 33.5783 17.193C33.0339 17.4642 32.5416 17.8603 32.1304 18.3581Z" stroke="#D65A31" stroke-width="4.775" stroke-miterlimit="10"/>
<path d="M21.8229 15.0169H24.8195H21.8229Z" stroke="#D65A31" stroke-width="4.775" stroke-miterlimit="10"/>
<path d="M21.8229 22.0297H24.8195H21.8229Z" stroke="#D65A31" stroke-width="4.775" stroke-miterlimit="10"/>
<path d="M21.8229 29.0425H24.8195H21.8229Z" stroke="#D65A31" stroke-width="4.775" stroke-miterlimit="10"/>
</g>
<defs>
<clipPath id="clip0_8_26">
<rect width="37.6528" height="44.0594" fill="white"/>
</clipPath>
</defs>
</svg>
