<svg width="600" height="541" viewBox="0 0 600 541" fill="none" xmlns="http://www.w3.org/2000/svg">
<path d="M59.2773 59.5483H160.156H303.857H444.482H540.723C557.031 59.5483 571.875 65.5735 582.617 75.2051C593.359 84.8806 600 98.2503 600 112.94V144.297V396.08V427.261C600 441.95 593.311 455.32 582.617 464.996C571.875 474.671 557.031 480.652 540.723 480.652H446.973C446.191 480.784 445.361 480.828 444.482 480.828C443.652 480.828 442.822 480.784 441.992 480.652H306.348C305.566 480.784 304.736 480.828 303.857 480.828C303.027 480.828 302.197 480.784 301.367 480.652H162.646C161.865 480.784 161.035 480.828 160.156 480.828C159.326 480.828 158.496 480.784 157.666 480.652H59.2773C42.9688 480.652 28.125 474.627 17.3828 464.996C6.64062 455.364 0 441.95 0 427.261V396.08V144.297V112.94C0 98.2503 6.68945 84.8806 17.3828 75.2051C28.125 65.5735 42.9688 59.5483 59.2773 59.5483ZM269.482 196.94L369.727 259.919C371.289 260.799 372.705 262.03 373.828 263.481C378.32 269.331 376.66 277.291 370.215 281.337L270.361 343.524C267.92 345.327 264.746 346.427 261.328 346.427C253.418 346.427 247.021 340.666 247.021 333.541V207.452H247.07C247.07 204.901 247.9 202.35 249.609 200.107C254.15 194.302 263.037 192.894 269.482 196.94ZM458.74 408.966V454.924H540.674C549.121 454.924 556.787 451.802 562.354 446.788C567.92 441.775 571.387 434.87 571.387 427.261V408.966H458.74ZM430.176 454.924V408.966H318.164V454.924H430.176ZM289.6 454.924V408.966H174.463V454.924H289.6ZM145.85 454.924V408.966H28.5645V427.261C28.5645 434.87 32.0312 441.775 37.5977 446.788C43.1641 451.802 50.8301 454.924 59.2773 454.924H145.85ZM28.5645 383.238H160.156H303.857H444.482H571.436V157.183H444.482H303.857H160.156H28.5645V383.238ZM430.176 131.455V85.2764H318.164V131.411H430.176V131.455ZM458.74 85.2764V131.411H571.387V112.94C571.387 105.331 567.92 98.4263 562.354 93.4126C556.787 88.3989 549.121 85.2764 540.674 85.2764H458.74ZM289.6 131.455V85.2764H174.463V131.411H289.6V131.455ZM145.85 131.455V85.2764H59.2773C50.8301 85.2764 43.1641 88.3989 37.5977 93.4126C32.0312 98.4263 28.5645 105.331 28.5645 112.94V131.411H145.85V131.455Z" fill="#606773"/>
</svg>
