<svg width="90" height="90" viewBox="0 0 90 90" fill="none" xmlns="http://www.w3.org/2000/svg">
<path d="M22.5525 30.023C22.981 26.634 27.3854 22.028 30.8808 22.5391L30.8752 22.5335C34.2769 23.18 36.9697 29.0348 38.4881 31.6674C39.564 33.5776 38.8654 35.5129 37.8619 36.3295C36.5081 37.4206 34.3912 38.9261 34.8354 40.4377C35.625 43.125 45 52.5 49.611 55.1651C51.3563 56.1739 52.6219 53.5133 53.7026 52.1501C54.4879 51.1016 56.4248 50.475 58.3305 51.51C61.1768 53.1675 63.858 55.0939 66.3375 57.2625C67.5758 58.2975 67.8664 59.8271 67.0084 61.4438C65.4971 64.2911 61.1261 68.046 57.9533 67.2829C52.4115 65.9505 30 57.2625 22.8012 32.0925C22.3964 30.9018 22.4983 30.4517 22.5525 30.023Z" fill="#D65A31"/>
<path fill-rule="evenodd" clip-rule="evenodd" d="M45 86.25C40.4115 86.25 37.8727 85.7576 33.75 84.375L25.8541 88.323C20.8673 90.8164 15 87.1901 15 81.6146V73.125C6.92456 65.595 3.75 56.9126 3.75 45C3.75 22.2183 22.2183 3.75 45 3.75C67.7816 3.75 86.25 22.2183 86.25 45C86.25 67.7816 67.7816 86.25 45 86.25ZM22.5 69.8636L20.1148 67.6395C13.8408 61.7895 11.25 55.2491 11.25 45C11.25 26.3604 26.3604 11.25 45 11.25C63.6397 11.25 78.75 26.3604 78.75 45C78.75 63.6398 63.6397 78.75 45 78.75C41.3036 78.75 39.57 78.4163 36.1348 77.2643L33.1818 76.2739L22.5 81.6146V69.8636Z" fill="#D65A31"/>
</svg>
